<mxfile host="app.diagrams.net" modified="2024-05-14T01:01:31.731Z" agent="Mozilla/5.0 (X11; Linux x86_64; rv:125.0) Gecko/20100101 Firefox/125.0" version="24.4.0" etag="jb9-Dk0vQ-_ISdWDXiLF" type="github">
  <diagram name="Page-1" id="7DmwVuIHgDkEA16T-99U">
    <mxGraphModel>
      <root>
        <mxCell id="0" />
        <mxCell id="1" parent="0" />
      </root>
    </mxGraphModel>
  </diagram>
</mxfile>
